<?xml version="1.0" encoding="UTF-8" standalone="no"?>
<svg
   width="48"
   height="48"
   fill="none"
   version="1.1"
   id="svg4"
   sodipodi:docname="icon.svg"
   inkscape:version="1.2 (dc2aeda, 2022-05-15)"
   inkscape:export-filename="icon.svg"
   inkscape:export-xdpi="96"
   inkscape:export-ydpi="96"
   xmlns:inkscape="http://www.inkscape.org/namespaces/inkscape"
   xmlns:sodipodi="http://sodipodi.sourceforge.net/DTD/sodipodi-0.dtd"
   xmlns="http://www.w3.org/2000/svg"
   xmlns:svg="http://www.w3.org/2000/svg">
  <defs
     id="defs8" />
  <sodipodi:namedview
     id="namedview6"
     pagecolor="#ffffff"
     bordercolor="#111111"
     borderopacity="1"
     inkscape:showpageshadow="0"
     inkscape:pageopacity="0"
     inkscape:pagecheckerboard="1"
     inkscape:deskcolor="#d1d1d1"
     showgrid="false"
     inkscape:zoom="5.0212766"
     inkscape:cx="33.955508"
     inkscape:cy="39.432203"
     inkscape:window-width="1680"
     inkscape:window-height="988"
     inkscape:window-x="132"
     inkscape:window-y="1105"
     inkscape:window-maximized="0"
     inkscape:current-layer="svg4" />
  <path
     fill-rule="evenodd"
     clip-rule="evenodd"
     d="m 44.351967,30.209588 -0.001,-0.003 c -0.049,0 -0.08,0.003 -0.08,0.003 0,0 -0.15,-0.603 -0.332,-1.187 -0.182,-0.583 -0.373,-0.947 -0.373,-0.947 l 0.113,-0.174 -0.002,-0.004 c 0.617,-1.02 0.632,-1.892 0.535,-2.446 a 3.363,3.363 0 0 0 -0.938,-1.848 l -0.027,-0.027 c -0.734,-0.719 -1.753,-1.223 -3.408,-1.688 -0.19,-0.053 -0.359,-0.097 -0.508,-0.135 a 14.48,14.48 0 0 1 -0.36,-0.106 l -0.015,-0.129 c -0.006,-0.437 -0.031,-1.918 -0.069,-2.782 -0.027,-0.624 -0.081,-1.598 -0.383,-2.558 -0.36,-1.299 -0.988,-2.436 -1.772,-3.163 2.162,-2.241 3.512,-4.7100004 3.51,-6.8290004 -0.007,-4.074 -5.01,-5.306 -11.176,-2.753 l -0.019,0.008 a 9.866,9.866 0 0 0 -1.259,0.533 l -0.028,0.013 a 1308.2,1308.2 0 0 0 -2.397,-2.347 c -7.03,-6.131 -29.0080008,18.2980004 -21.9800008,24.2320004 l 1.535,1.3 c -0.398,1.032 -0.555,2.215 -0.427,3.486 0.164,1.633 1.006,3.198 2.371,4.408 1.296,1.148 2.93,1.83 4.4899998,1.872 l 0.137,0.002 h 0.027 c 2.734001,6.3 8.808001,10.017 16.016001,10.372 l 0.285,0.012 v 0.002 h 0.007 v -0.002 c 7.714,0.273 14.454,-3.454 17.219,-10.078 0.348,-0.896 2.29,-6.275 -0.691,-7.036 z m -32.232,4.96 c -0.239001,0.04 -0.482001,0.056 -0.728001,0.05 -2.3729998,-0.063 -4.9369998,-2.2 -5.1919998,-4.734 -0.281,-2.8 1.15,-4.956 3.684,-5.467 a 4.313,4.313 0 0 1 1.0639998,-0.076 c 1.420001,0.078 3.511001,1.168 3.990001,4.26 0.423,2.74 -0.25,5.528 -2.818,5.966 z m -2.6600008,-11.825 0.01,-0.002 c 1.9529998,-5.347 5.3600008,-10.356 9.7980008,-13.7730004 0.084,-0.07 0.17,-0.14 0.26,-0.21 2.187,-1.785 4.428,-3.305 6.585,-4.508 0,0 -1.913,-2.218 -2.49,-2.381 -3.553,-0.96 -11.229,4.333 -16.1300008,11.3260004 -1.982,2.83 -4.8200001,7.84 -3.463,10.418 0.167,0.32 1.114,1.14 1.622,1.564 0.85,-1.235 2.15,-2.1 3.808,-2.434 z m 9.0400008,-9.553 c 1.746,-2.023 3.9,-3.783001 5.829,-4.7700004 0.066,-0.034 0.137,0.038 0.1,0.103 -0.153,0.28 -0.45,0.8779994 -0.541,1.3279994 -0.013,0.066 0.06,0.114 0.116,0.076 1.198,-0.8179997 3.364,-1.5479994 5.195,-1.6559994 0.078,-0.005 0.111,0.098 0.045,0.14 -0.285,0.177 -0.729,0.482 -0.932,0.7779997 a 0.076,0.076 0 0 0 0.055,0.119 c 1.268,0.1169997 3.067,0.4499997 4.325,1.0459997 0.082,0.039 0.038,0.162 -0.05,0.142 -1.777,-0.41 -4.705,-0.727 -7.746,0.015 -2.717,0.663 -4.788,1.689 -6.295,2.79 -0.072,0.053 -0.16,-0.043 -0.101,-0.11 z m 23.154,24.961 c 1.477,-1.543 2.356,-3.221 2.697,-5.289 0.168,-1.106 -0.078,-1.534 -0.412,-1.74 -0.354,-0.218 -0.778,-0.142 -0.778,-0.142 0,0 -0.193,-1.324 -0.74,-2.526 -1.623,1.28 -3.712,2.18 -5.303,2.637 -1.836,0.527 -4.32,0.932 -7.091,0.767 -0.302,-0.024 -0.584,-0.061 -0.845,-0.095 -1.068,-0.14 -1.785,-0.234 -2.093,0.765 a 5.137,5.137 0 0 0 0.292,0.11 c 0.143,0.048 0.29,0.093 0.438,0.135 a 15.031,15.031 0 0 0 1.82,0.401 c 0.308,0.049 0.617,0.093 0.928,0.125 a 14.503,14.503 0 0 0 1.402,0.08 13.092,13.092 0 0 0 1.115,-0.02 c 0.098,-0.004 0.196,-0.008 0.294,-0.014 0.313,-0.022 0.626,-0.05 0.942,-0.081 a 0.131,0.131 0 0 1 0.064,0.25 l -0.009,0.004 c -0.302,0.128 -0.615,0.23 -0.933,0.31 a 8.384,8.384 0 0 1 -1.457,0.226 14.41,14.41 0 0 1 -1.477,0.019 13.822,13.822 0 0 1 -0.983,-0.076 15.745,15.745 0 0 1 -1.46,-0.247 10.076,10.076 0 0 1 -1.074,-0.307 c 0.125,1.064 1.162,1.541 1.658,1.734 a 7.478,7.478 0 0 0 1.306,0.354 c 5.62,0.967 10.875,-2.246 12.058,-3.056 0.088,-0.06 0.147,-10e-4 0.076,0.106 a 1.96,1.96 0 0 1 -0.116,0.165 c -1.448,1.868 -5.34,4.03 -10.404,4.03 -2.21,0 -4.417,-0.779 -5.227,-1.974 -1.258,-1.855 -0.062,-4.563 2.033,-4.281 0.002,0 0.717,0.08 0.918,0.104 4.408,0.493 9.73,-0.959 12.094,-3.142 l 0.116,-0.083 c 0.819,-0.772 1.236,-1.57 1.102,-2.271 a 1.7,1.7 0 0 0 -0.493,-0.967 c -0.513,-0.503 -1.328,-0.894 -2.702,-1.28 l -0.114,-0.032 -0.145,-0.04 c -0.32,-0.09 -0.57,-0.159 -0.835,-0.246 -0.59,-0.194 -0.882,-0.35 -0.948,-1.46 -0.03,-0.486 -0.114,-2.176 -0.144,-2.875 -0.054,-1.224 -0.201,-2.898 -1.24,-3.588 a 1.74,1.74 0 0 0 -0.887,-0.284 c -0.255,-0.012 -0.405,0.023 -0.485,0.042 l -0.042,0.01 c -0.56,0.094 -0.904,0.382 -1.31,0.72 l -0.07,0.06 c -1.295,1.079 -2.389,1.255 -3.604,1.203 -0.38,-0.016 -0.77,-0.054 -1.183,-0.095 -0.378,-0.037 -0.774,-0.076 -1.197,-0.101 l -0.1,-0.006 c -0.139,-0.008 -0.277,-0.017 -0.416,-0.024 -2.036,-0.104 -4.22,1.655 -4.584,4.153 -0.405,2.787 1.133,4.494 2.133,5.605 0.248,0.275 0.462,0.513 0.607,0.722 a 0.756,0.756 0 0 1 -0.06,0.97 l 0.001,0.001 c -2.078,2.137 -2.742,5.532 -1.96,8.36 0.099,0.354 0.222,0.692 0.37,1.014 1.836,4.294 7.535,6.293 13.103,4.474 a 13.677,13.677 0 0 0 2.115,-0.893 11.112,11.112 0 0 0 3.24,-2.42 z m -6.56,-16.037 c 0.34,-0.04 0.667,-0.042 0.967,0 0.173,-0.398 0.203,-1.084 0.047,-1.831 -0.232,-1.111 -0.546,-1.783 -1.195,-1.678 -0.65,0.104 -0.673,0.909 -0.441,2.02 0.13,0.624 0.363,1.159 0.622,1.49 z m -5.572,0.88 c -1.001,-0.432 -1.777,-0.565 -3.24,-0.094 l -0.115,0.038 c -0.291,0.095 -0.494,0.161 -0.623,0.155 a 0.26,0.26 0 0 1 -0.04,-0.005 c -0.069,-0.014 -0.116,-0.057 -0.13,-0.119 -0.042,-0.191 0.253,-0.507 0.564,-0.734 0.94,-0.677 2.16,-0.823 3.184,-0.383 0.5,0.213 0.971,0.593 1.2,0.967 0.111,0.181 0.133,0.321 0.061,0.395 -0.112,0.118 -0.335,0.017 -0.74,-0.166 h -10e-4 l -0.12,-0.055 z m -0.935,0.532 c -0.094,0.01 -0.181,0.03 -0.266,0.05 l -0.006,0.001 a 4.952,4.952 0 0 1 -0.075,0.017 2.01,2.01 0 0 0 -0.805,0.413 c -0.183,0.16 -0.296,0.336 -0.295,0.46 0,0.06 0.026,0.093 0.046,0.11 0.028,0.025 0.06,0.036 0.1,0.038 0.083,0.004 0.196,-0.036 0.351,-0.09 l 0.091,-0.032 a 3.777,3.777 0 0 1 1.91,-0.207 l 0.038,0.005 c 0.279,0.033 0.447,0.053 0.514,-0.052 0.02,-0.03 0.044,-0.095 -0.017,-0.193 -0.142,-0.23 -0.753,-0.618 -1.586,-0.52 z m 5.635,1.78 c -0.147,0.3 -0.6,0.379 -1.01,0.177 -0.41,-0.202 -0.624,-0.608 -0.477,-0.907 0.147,-0.3 0.6,-0.38 1.01,-0.177 0.41,0.201 0.624,0.608 0.477,0.907 z m 1.63,-2.13 c -0.333,-0.006 -0.61,0.36 -0.618,0.818 -0.008,0.458 0.257,0.833 0.59,0.839 0.334,0.006 0.61,-0.36 0.618,-0.818 0.008,-0.458 -0.256,-0.833 -0.59,-0.839 z m -22.761,8.208 c 0.132,-0.03 0.268,-0.062 0.351,0.042 0.03,0.034 0.078,0.113 0.022,0.242 -0.095,0.22 -0.468,0.52 -1.002,0.5 -0.550001,-0.043 -1.160001,-0.443 -1.244001,-1.437 -0.04,-0.49 0.145,-1.089 0.26,-1.401 0.22,-0.605 0.02,-1.238 -0.496,-1.577 a 1.34,1.34 0 0 0 -1.8579998,0.387 c -0.158,0.247 -0.255,0.555 -0.306,0.72 -0.014,0.045 -0.025,0.08 -0.034,0.102 -0.116,0.313 -0.302,0.405 -0.427,0.388 -0.06,-0.008 -0.142,-0.048 -0.194,-0.191 -0.143,-0.392 -0.027,-1.5 0.71,-2.314 a 2.233,2.233 0 0 1 1.9149998,-0.69 c 0.742,0.094 1.359001,0.543 1.737001,1.263 0.503,0.958 0.055,1.963 -0.212,2.563 l -0.005,0.01 a 8.5,8.5 0 0 0 -0.074,0.169 c -0.167,0.398 -0.176,0.746 -0.024,0.98 0.117,0.179 0.324,0.284 0.57,0.288 0.114,0.002 0.218,-0.022 0.31,-0.043 h 10e-4 z"
     fill="#000000"
     id="path2" />
</svg>
