<?xml version="1.0" encoding="UTF-8" standalone="no"?>
<svg
   width="512"
   height="512"
   viewBox="0 0 512 512"
   version="1.1"
   id="svg29"
   sodipodi:docname="icon.svg"
   inkscape:version="1.2 (dc2aeda, 2022-05-15)"
   xmlns:inkscape="http://www.inkscape.org/namespaces/inkscape"
   xmlns:sodipodi="http://sodipodi.sourceforge.net/DTD/sodipodi-0.dtd"
   xmlns="http://www.w3.org/2000/svg"
   xmlns:svg="http://www.w3.org/2000/svg">
  <defs
     id="defs33" />
  <sodipodi:namedview
     id="namedview31"
     pagecolor="#ffffff"
     bordercolor="#111111"
     borderopacity="1"
     inkscape:showpageshadow="0"
     inkscape:pageopacity="0"
     inkscape:pagecheckerboard="1"
     inkscape:deskcolor="#d1d1d1"
     showgrid="false"
     inkscape:zoom="0.4609375"
     inkscape:cx="264.67797"
     inkscape:cy="258.16949"
     inkscape:window-width="1661"
     inkscape:window-height="864"
     inkscape:window-x="0"
     inkscape:window-y="25"
     inkscape:window-maximized="0"
     inkscape:current-layer="g27" />
  <g
     id="g27">
    <circle
       fill="#ffffff"
       r="256"
       cy="256.00037"
       cx="256"
       id="circle9"
       style="display:inline" />
    <g
       id="g212"
       transform="matrix(1.2291371,0,0,1.208972,-77.143686,-51.32888)">
      <path
         d="m 235.5,80.39999 c -34.9,6.6 -86.5,49.3 -119.5,98.9 -9.6,14.4 -17.9,30.4 -22.2,42.8 -3,8.6 -3.2,10.4 -3.3,21.9 0,12 0.1,12.7 3,17.9 1.9,3.5 5.5,7.6 10.3,11.5 3.9,3.3 7.2,6.5 7.2,7.1 -0.1,0.5 -0.7,3.7 -1.5,7 -6.3,26.1 8.5,53.1 34.7,62.9 3.5,1.3 8.8,2.7 11.8,3.1 l 5.6,0.7 4.4,8.6 c 11.3,22.2 31.8,42 55.9,54.1 44.2,22.3 103.8,20.5 144.5,-4.2 32.2,-19.5 53.7,-53.2 55.3,-86.2 0.4,-10.2 0.3,-11.3 -1.9,-15.5 -1.6,-3.1 -3.6,-5.1 -6.4,-6.5 -3.8,-1.8 -4.3,-2.6 -6.6,-9.9 l -2.6,-7.8 2.4,-5.2 c 4.4,-9.4 2.8,-19.7 -4.2,-27.5 -6,-6.7 -11.9,-9.5 -32.1,-15.7 -0.9,-0.2 -1.3,-3.3 -1.3,-10.6 0,-23.7 -4.1,-39.5 -13.3,-51.1 l -3,-3.8 3.2,-3.7 c 10.9,-12.9 18.7,-26.4 21.6,-37.7 4.7,-18.5 -2.6,-32.3 -20.5,-38.6 -5.3,-1.8 -8.5,-2.2 -18,-2.2 -16.1,0.1 -24.9,2.1 -50.2,11.9 l -4.7,1.8 -10.8,-10.5 c -8.7,-8.5 -11.8,-10.9 -15.8,-12.2 -7.3,-2.4 -14.1,-2.8 -22,-1.3 z m 16.5,12.6 c 3.5,1 19,15.3 19,17.6 0,0.6 -3.9,3.5 -8.7,6.4 -30.5,18.5 -59,42.2 -76.2,63.3 -13.9,17.1 -28.4,41.8 -36.7,62.2 l -3.2,8 -6.1,2.2 c -7.5,2.7 -16.2,8.3 -20.1,13.1 l -2.9,3.6 -5.8,-5 c -9.6,-8.4 -11.5,-18.8 -6.2,-35.9 5.4,-17.9 23.1,-47.8 40.2,-68 36.5,-43.2 84.8,-73.8 106.7,-67.5 z m 40,51.5 c -3.8,3.9 -3.6,4 5.2,4.9 6.9,0.7 20.6,4.9 23.3,7.1 1.9,1.6 1.8,1.6 -2,1.1 -22.2,-3.2 -35.9,-3.2 -51.2,-0.1 -15.6,3.2 -36.7,11.5 -46.8,18.5 -2.5,1.8 -4.9,2.9 -5.3,2.5 -0.9,-0.9 16.6,-17.7 25.1,-24 8.1,-6.1 17.6,-12 18.2,-11.3 0.3,0.3 -0.4,2.6 -1.6,5.2 -1.1,2.6 -1.9,4.9 -1.7,5.2 0.3,0.2 3.4,-1.2 7,-3.1 3.7,-2 9.3,-4.5 12.5,-5.6 5.8,-2.1 19.4,-4.9 20.2,-4.2 0.3,0.2 -1,1.9 -2.9,3.8 z m 53.9,44.9 c 6.8,3.6 9,10.7 10.5,34.7 0.9,14.4 1.6,20.3 2.8,22 1.1,1.8 4.5,3.3 13.4,6.1 13.8,4.3 20.3,8 22.7,13.1 2.1,4.3 2.1,6.7 0.2,11.5 -4.7,11.3 -24.1,23.1 -48.4,29.6 -14.5,3.9 -26.3,5 -46.4,4.3 -19.2,-0.7 -20.9,-0.4 -25.4,4.5 -7.4,7.9 -6.8,22.8 1.4,30.4 4,3.8 13.5,8.1 22.2,10 10.5,2.4 30.8,1.4 44.7,-2 18.4,-4.5 35,-13.1 45.2,-23.3 2.4,-2.5 4.2,-4.7 3.9,-4.9 -0.3,-0.3 -2.7,0.9 -5.4,2.5 -14.3,8.8 -35.1,16.7 -51.2,19.5 -24.3,4.2 -49.3,-0.2 -55.1,-9.6 -3.3,-5.4 -2.7,-5.7 5.8,-3.5 10.8,2.7 33.1,2.9 42,0.3 3.4,-1 6.2,-2.2 6.2,-2.6 0,-0.5 -7.1,-0.8 -15.7,-0.9 -20.1,0 -39.3,-3.7 -39.3,-7.5 0,-3.7 2.6,-4.1 27.9,-4.1 21.2,-0.1 26,-0.4 34.6,-2.2 17.8,-3.7 34,-10.3 47.1,-18.9 2.8,-1.9 5.4,-3.4 5.7,-3.4 0.5,0 4,10.3 5.1,15.2 0.4,1.9 1.4,2.8 3.6,3.3 4.1,0.9 6,4 6,10 0,17.2 -13.2,40.2 -30.8,53.6 -9.1,6.9 -24.6,14.3 -36.7,17.5 -13.6,3.6 -34.7,3.9 -47,0.5 -25.5,-6.9 -43.2,-23.7 -49,-46.6 -1.9,-7.4 -1.9,-21.9 -0.1,-30.6 1.9,-9 6.3,-18.1 12.5,-26.3 6.3,-8.1 6.4,-7.5 -3.3,-19.1 -11.9,-14.2 -16.1,-26.3 -13.8,-39.6 2.3,-13.1 9.9,-23.5 21,-28.7 5.4,-2.6 6.3,-2.7 17.2,-2.2 24.1,0.9 30.1,0.6 35.4,-1.8 2.7,-1.2 6.8,-3.7 9,-5.6 2.3,-1.8 5.5,-4 7.1,-4.9 3.8,-2 10.7,-2.1 14.4,-0.3 z m -178.6,76.4 c 9.6,4.3 17.2,15 19.7,28 1.9,9.7 0.9,24.6 -2.2,31.3 -7.9,17.2 -26.7,20.7 -45.2,8.4 -6.8,-4.5 -11.6,-10.1 -15.3,-18.1 -2.5,-5.2 -2.8,-7 -2.8,-15.9 0,-8.7 0.4,-10.7 2.6,-15.6 8,-17.2 27.2,-25.2 43.2,-18.1 z"
         fill="#000000"
         id="path13" />
      <path
         d="m 335.3,222.6 c -1.5,2.3 -1.5,3.4 -0.5,9.4 0.6,3.8 1.9,8.5 2.9,10.4 1.5,3.3 2,3.6 6,3.6 h 4.3 v -6.3 c 0,-7.2 -2,-14.9 -4.6,-17.8 -2.4,-2.7 -6,-2.4 -8.1,0.7 z"
         fill="#000000"
         id="path15" />
      <path
         d="m 281,242.9 c -7.5,1.5 -16.5,8 -14.2,10.3 0.4,0.4 3.9,-0.1 7.7,-1.2 9.1,-2.6 13.5,-2.5 22,0.5 3.8,1.4 7.3,2.1 7.8,1.6 0.4,-0.4 -0.4,-2.3 -2,-4.1 -4.5,-5.4 -13.9,-8.5 -21.3,-7.1 z"
         fill="#000000"
         id="path17" />
      <path
         d="m 343.00001,256 c -2.4,2.4 -2.6,5.7 -0.4,8.8 1.8,2.7 3.6,2.8 5.7,0.4 2.2,-2.5 2.1,-7.5 -0.1,-9.5 -2.4,-2.2 -2.8,-2.1 -5.2,0.3 z"
         fill="#000000"
         id="path19" />
      <path
         d="m 285.1,258.8 c -3.8,2 -5.9,4.7 -4.8,5.8 0.4,0.4 2.6,0.1 4.9,-0.6 2.4,-0.7 7.3,-1.3 11.1,-1.2 3.7,0.1 6.7,-0.3 6.7,-0.7 0,-0.4 -0.9,-1.6 -2,-2.6 -3,-2.7 -11.6,-3.1 -15.9,-0.7 z"
         fill="#000000"
         id="path21" />
      <path
         d="m 322.7,263.7 c -1.3,1.2 -0.7,5 1.1,6.5 2.9,2.5 5.3,2.9 7.8,1.3 3,-2 3,-3 -0.1,-6 -2.3,-2.4 -7.3,-3.4 -8.8,-1.8 z"
         fill="#000000"
         id="path23" />
      <path
         d="m 146.2,278.7 c -6,2.9 -10.6,11.1 -10,17.9 0.4,5.3 2.7,5.1 5.4,-0.6 3,-6.2 5.7,-8.5 10.4,-8.5 4.5,0 8.6,3.2 9.5,7.5 0.3,1.6 -0.1,5.4 -1,8.5 -2.1,6.9 -1.3,12 2.3,15.7 4.1,4.4 13.2,3.4 13.2,-1.3 0,-1.7 -0.5,-1.9 -3.3,-1.4 -2.5,0.5 -3.7,0.2 -5.1,-1.4 -2.1,-2.3 -1.9,-4.5 1.4,-13.6 1.6,-4.4 2,-7.1 1.5,-10.3 -0.7,-4.7 -4.9,-10.3 -9.6,-12.8 -3.7,-1.9 -10.6,-1.8 -14.7,0.3 z"
         fill="#000000"
         id="path25" />
    </g>
  </g>
</svg>
